<?xml version="1.0" encoding="UTF-8"?>
<svg version="1.1" xmlns="http://www.w3.org/2000/svg" width="72" height="72">
<path d="M0 0 C8.00635373 6.61394439 14.08988042 14.58067489 15.10546875 25.09765625 C15.6376895 35.70872737 13.42332509 43.73705482 7.62890625 52.76953125 C-1.92819532 61.70334359 -11.39227109 65.0847125 -24.2578125 64.7734375 C-29.46585011 64.48007879 -33.71195897 63.01064247 -38.24609375 60.45703125 C-38.87773438 60.11800781 -39.509375 59.77898437 -40.16015625 59.4296875 C-47.27749042 55.02446525 -52.55088387 46.98274247 -54.80859375 38.99609375 C-56.4506194 29.46648062 -56.0302533 19.99925714 -51.24609375 11.45703125 C-39.25002589 -4.99337222 -18.07063854 -12.413743 0 0 Z " fill="#85DEB1" transform="translate(56.24609375,7.54296875)"/>
<path d="M0 0 C3.90278728 2.7877052 7.25500272 5.42460044 9 10 C9.76019626 16.5357133 9.17281291 21.20616774 6 27 C6.18487101 30.88229129 7.50751599 33.07404051 10 36 C6.26512223 35.5020163 4.18762365 35.12508244 1 33 C-1.0081326 33.28020455 -3.0075675 33.62406934 -5 34 C-11.39054745 34.51536673 -15.65613928 33.64570054 -21 30 C-25.2405132 25.7594868 -26.71977763 21.52200136 -27.375 15.625 C-26.82841039 10.34130046 -25.25522387 6.07583106 -21.28125 2.41796875 C-14.5918129 -2.49990132 -7.75166037 -3.55284434 0 0 Z " fill="#0D0F0F" transform="translate(43,20)"/>
<path d="M0 0 C0 3.85697617 -1.38480736 5.07041625 -3.7109375 7.98828125 C-8.15292315 14.92047098 -7.78958131 23.08839531 -7 31 C-5.32855259 36.82435135 -3.3625114 41.7526282 1 46 C1 46.66 1 47.32 1 48 C1.82757812 48.39832031 1.82757812 48.39832031 2.671875 48.8046875 C5 50 5 50 7.453125 51.5078125 C15.93125236 56.40996994 23.48995832 57.41558063 33 56 C42.32932739 52.98199965 49.80570561 47.54600949 54.375 38.8125 C57.98889787 31.09761369 58.44879724 21.39733274 56.24609375 13.19140625 C54.42987028 8.96779637 52.09365687 5.42512011 49 2 C49.33 1.34 49.66 0.68 50 0 C57.74121167 8.09308492 60.6388571 15.72397769 60.54516602 26.95239258 C60.13993381 36.03625817 56.70226209 44.73484196 50 51 C39.32919329 58.69670744 30.02613519 61.35737307 17 60 C13.34149708 59.12442039 10.27056672 57.84197345 7 56 C6.36835938 55.66097656 5.73671875 55.32195312 5.0859375 54.97265625 C-2.03139667 50.567434 -7.30479012 42.52571122 -9.5625 34.5390625 C-11.21894122 24.92578757 -10.6231188 15.68585957 -6 7 C-4.14703188 4.4148835 -2.23359757 2.28436115 0 0 Z " fill="#030504" transform="translate(11,12)"/>
<path d="M0 0 C7.24690123 0.35640498 11.93352822 2.93128813 16.8125 8.1875 C19.76004112 12.81796064 19.32573381 17.88663732 18.8125 23.1875 C16.70611702 28.74069149 16.70611702 28.74069149 13.8125 30.1875 C13.1525 25.5675 12.4925 20.9475 11.8125 16.1875 C8.7379644 16.9638932 8.7379644 16.9638932 6.8125 19.1875 C6.4825 17.5375 6.1525 15.8875 5.8125 14.1875 C4.4925 13.8575 3.1725 13.5275 1.8125 13.1875 C1.8125 12.1975 1.8125 11.2075 1.8125 10.1875 C0.1625 10.5175 -1.4875 10.8475 -3.1875 11.1875 C-4.8125 8.4375 -4.8125 8.4375 -6.1875 5.1875 C-4.92440951 1.292971 -4.09497532 0.2408809 0 0 Z " fill="#0C0E0D" transform="translate(33.1875,17.8125)"/>
<path d="M0 0 C1.32 0 2.64 0 4 0 C4 0.99 4 1.98 4 3 C5.65 3.33 7.3 3.66 9 4 C9.33 4.99 9.66 5.98 10 7 C10.66 6.34 11.32 5.68 12 5 C12.99 5.33 13.98 5.66 15 6 C16.1194613 8.8914086 16.10768197 11.67762612 16.0625 14.75 C16.05347656 15.54921875 16.04445313 16.3484375 16.03515625 17.171875 C16.02355469 17.77515625 16.01195313 18.3784375 16 19 C15.01 19 14.02 19 13 19 C12.67 18.67 12.34 18.34 12 18 C11.01 20.475 11.01 20.475 10 23 C7.69 23.33 5.38 23.66 3 24 C3.66 22.35 4.32 20.7 5 19 C4.34 19 3.68 19 3 19 C3.66 17.02 4.32 15.04 5 13 C4.34 12.34 3.68 11.68 3 11 C2.875 8.375 2.875 8.375 3 6 C1.68 6 0.36 6 -1 6 C-1 6.99 -1 7.98 -1 9 C-1.66 9 -2.32 9 -3 9 C-2.30058404 5.85262818 -1.23921302 2.97411124 0 0 Z " fill="#202726" transform="translate(31,28)"/>
<path d="M0 0 C1.65 0.33 3.3 0.66 5 1 C5.83982775 3.90590706 6.16544482 5.53161739 5.14453125 8.421875 C4.70496094 9.19015625 4.26539063 9.9584375 3.8125 10.75 C3.38582031 11.52859375 2.95914062 12.3071875 2.51953125 13.109375 C1 15 1 15 -1.03515625 15.84375 C-3 16 -3 16 -5.25 14.75 C-5.8275 14.1725 -6.405 13.595 -7 13 C-7 12.01 -7 11.02 -7 10 C-6.34 10 -5.68 10 -5 10 C-4.34 8.02 -3.68 6.04 -3 4 C-2.34 4 -1.68 4 -1 4 C-0.67 2.68 -0.34 1.36 0 0 Z " fill="#50597E" transform="translate(24,23)"/>
<path d="M0 0 C1.32 0 2.64 0 4 0 C4 1.32 4 2.64 4 4 C4.66 4 5.32 4 6 4 C8.4056198 7.84899168 8.71267364 11.54644135 9 16 C8.34 16.66 7.68 17.32 7 18 C6.01 18 5.02 18 4 18 C4.20625 17.21625 4.4125 16.4325 4.625 15.625 C4.810625 14.325625 4.810625 14.325625 5 13 C4.34 12.34 3.68 11.68 3 11 C2.875 8.375 2.875 8.375 3 6 C1.68 6 0.36 6 -1 6 C-1 6.99 -1 7.98 -1 9 C-1.66 9 -2.32 9 -3 9 C-2.30058404 5.85262818 -1.23921302 2.97411124 0 0 Z " fill="#313C3A" transform="translate(31,28)"/>
<path d="M0 0 C0.99 0.33 1.98 0.66 3 1 C4.1194613 3.8914086 4.10768197 6.67762612 4.0625 9.75 C4.05347656 10.54921875 4.04445313 11.3484375 4.03515625 12.171875 C4.01775391 13.07679687 4.01775391 13.07679687 4 14 C3.01 14 2.02 14 1 14 C0.34 12.35 -0.32 10.7 -1 9 C-1.66 9 -2.32 9 -3 9 C-2.25 2.25 -2.25 2.25 0 0 Z " fill="#4C7414" transform="translate(43,33)"/>
<path d="M0 0 C0.66 0.33 1.32 0.66 2 1 C0 4 0 4 -3 5 C-3.33 5.99 -3.66 6.98 -4 8 C-4.99 8.495 -4.99 8.495 -6 9 C-6.65772428 12.02934491 -6.65772428 12.02934491 -7 15 C-7.99 14.67 -8.98 14.34 -10 14 C-9.79375 14.61875 -9.5875 15.2375 -9.375 15.875 C-9.25125 16.57625 -9.1275 17.2775 -9 18 C-9.66 18.66 -10.32 19.32 -11 20 C-11.49104015 14.10751815 -10.51555983 9.84275965 -7 5 C-4.76461863 3.01831288 -2.56071855 1.5758268 0 0 Z " fill="#222A2A" transform="translate(27,19)"/>
<path d="M0 0 C0.28875 0.61875 0.5775 1.2375 0.875 1.875 C2.22018987 4.41591419 3.42250301 5.71125151 6 7 C7.03789581 8.64333504 8.03567924 10.31243867 9 12 C9.99 13.485 9.99 13.485 11 15 C5.46153846 14.38461538 5.46153846 14.38461538 3.125 12.4375 C2.75375 11.963125 2.3825 11.48875 2 11 C2.66 11 3.32 11 4 11 C4 10.34 4 9.68 4 9 C2.68 8.34 1.36 7.68 0 7 C0 4.69 0 2.38 0 0 Z " fill="#101C15" transform="translate(42,41)"/>
<path d="M0 0 C1.32 0 2.64 0 4 0 C4.33 2.31 4.66 4.62 5 7 C2.03 6.505 2.03 6.505 -1 6 C-1 6.99 -1 7.98 -1 9 C-1.66 9 -2.32 9 -3 9 C-2.30058404 5.85262818 -1.23921302 2.97411124 0 0 Z " fill="#62717E" transform="translate(31,28)"/>
<path d="M0 0 C0.66 0 1.32 0 2 0 C2 2.31 2 4.62 2 7 C2.33 6.01 2.66 5.02 3 4 C4.32 4.33 5.64 4.66 7 5 C6.01 6.32 5.02 7.64 4 9 C1.03824877 8.38722388 -0.38058783 7.74627478 -3 6 C-3 5.01 -3 4.02 -3 3 C-2.34 3 -1.68 3 -1 3 C-0.67 2.01 -0.34 1.02 0 0 Z " fill="#567396" transform="translate(20,30)"/>
<path d="M0 0 C0.99 0 1.98 0 3 0 C3.33 0.66 3.66 1.32 4 2 C6.02463255 2.65213292 6.02463255 2.65213292 8 3 C7.67 3.99 7.34 4.98 7 6 C5.68 6 4.36 6 3 6 C2.67 7.32 2.34 8.64 2 10 C1.67 9.67 1.34 9.34 1 9 C1.28730055 6.66055264 1.61936779 4.3260857 2 2 C1.34 2 0.68 2 0 2 C0 1.34 0 0.68 0 0 Z " fill="#9BC1DD" transform="translate(20,28)"/>
<path d="M0 0 C0.33 0.66 0.66 1.32 1 2 C-2.32307692 5.93846154 -2.32307692 5.93846154 -5.75 6.25 C-6.4925 6.1675 -7.235 6.085 -8 6 C-6.8125 3.5625 -6.8125 3.5625 -5 1 C-2.3125 0.1875 -2.3125 0.1875 0 0 Z " fill="#769F40" transform="translate(42,46)"/>
<path d="M0 0 C0.99 0.33 1.98 0.66 3 1 C2.34 1.66 1.68 2.32 1 3 C0.28591666 4.98356483 -0.38617742 6.98315437 -1 9 C-1.66 9 -2.32 9 -3 9 C-2.25 2.25 -2.25 2.25 0 0 Z " fill="#66943C" transform="translate(43,33)"/>
<path d="M0 0 C0.66 0 1.32 0 2 0 C2 1.65 2 3.3 2 5 C-3.75 6.125 -3.75 6.125 -6 5 C-5.67 4.34 -5.34 3.68 -5 3 C-3.66666667 2.66666667 -2.33333333 2.33333333 -1 2 C-0.67 1.34 -0.34 0.68 0 0 Z " fill="#2C391C" transform="translate(40,42)"/>
<path d="M0 0 C0.33 0 0.66 0 1 0 C1.9765625 6.0546875 1.9765625 6.0546875 2 8 C1.34 8.66 0.68 9.32 0 10 C-0.99 10 -1.98 10 -3 10 C-2.67 8.68 -2.34 7.36 -2 6 C-1.34 6 -0.68 6 0 6 C0 4.02 0 2.04 0 0 Z " fill="#618743" transform="translate(38,36)"/>
<path d="M0 0 C1.67542976 0.28604898 3.34385343 0.61781233 5 1 C5 1.99 5 2.98 5 4 C3.68 3.67 2.36 3.34 1 3 C0.67 3.66 0.34 4.32 0 5 C-0.5625 3.0625 -0.5625 3.0625 -1 1 C-0.67 0.67 -0.34 0.34 0 0 Z " fill="#9DBCD1" transform="translate(24,23)"/>
<path d="M0 0 C0.28875 0.61875 0.5775 1.2375 0.875 1.875 C1.93720042 4.13325765 1.93720042 4.13325765 4 6 C4.66 6.66 5.32 7.32 6 8 C5.34 8.66 4.68 9.32 4 10 C2 8.9375 2 8.9375 0 7 C-0.25 3.3125 -0.25 3.3125 0 0 Z " fill="#1C270F" transform="translate(42,41)"/>
<path d="M0 0 C2 2 2 2 2.125 5.125 C2.08375 6.07375 2.0425 7.0225 2 8 C1.01 7.67 0.02 7.34 -1 7 C-1.04254356 5.00045254 -1.04080783 2.99958364 -1 1 C-0.67 0.67 -0.34 0.34 0 0 Z " fill="#77AB3B" transform="translate(45,36)"/>
<path d="M0 0 C0.66 0.33 1.32 0.66 2 1 C-0.50683077 4.76024616 -2.86493934 5.39192086 -7 7 C-5.55609075 3.19333016 -3.65047197 1.73397418 0 0 Z " fill="#283731" transform="translate(27,19)"/>
</svg>
